<svg xmlns="http://www.w3.org/2000/svg" width="26" height="31" viewBox="0 0 26 31">
    <path fill="#B4C5CE" fill-rule="nonzero" d="M22.75 10.333h-1.625V7.381C21.125 3.307 17.485 0 13 0 8.515 0 4.875 3.307 4.875 7.381v2.952H3.25c-1.788 0-3.25 1.329-3.25 2.953v14.762C0 29.67 1.462 31 3.25 31h19.5c1.788 0 3.25-1.329 3.25-2.952V13.286c0-1.624-1.462-2.953-3.25-2.953zM13 23.62c-1.788 0-3.25-1.329-3.25-2.952 0-1.624 1.462-2.953 3.25-2.953s3.25 1.329 3.25 2.953c0 1.623-1.462 2.952-3.25 2.952zm5.038-13.286H7.962V7.381c0-2.524 2.26-4.576 5.038-4.576 2.779 0 5.038 2.052 5.038 4.576v2.952z"/>
</svg>
